<?xml version="1.0" standalone="no"?><!DOCTYPE svg PUBLIC "-//W3C//DTD SVG 1.1//EN" "http://www.w3.org/Graphics/SVG/1.1/DTD/svg11.dtd"><svg t="1587013846071" class="icon" viewBox="0 0 1080 1024" version="1.1" xmlns="http://www.w3.org/2000/svg" p-id="6392" width="15.8203125" height="15" xmlns:xlink="http://www.w3.org/1999/xlink"><defs><style type="text/css"></style></defs><path d="M481.909376 520.078277h-80.667571c2.275531-154.024998 2.275531-349.7491 267.232661-506.134961 6.855037-4.664838 3.413296-15.018504-4.551062-13.852295-507.187394 79.871135-548.118506 427.31626-549.256272 518.821046H30.557821c-25.03084 0-39.793347 30.150784-23.893075 49.862571l205.736438 264.075362a54.925627 54.925627 0 0 0 87.551052 0l205.878658-264.075362c14.847839-18.517133 1.137765-48.696361-23.893074-48.696361m592.206917-65.990396l-205.878658-264.103806a54.925627 54.925627 0 0 0-87.579496 0l-204.712449 264.075362c-15.871828 19.683342-1.023989 49.862571 23.893075 49.862571h80.696014c-2.275531 154.024998-2.275531 349.7491-267.261104 506.134961-6.826593 4.664838-3.413296 15.018504 4.60795 13.852294 507.15895-79.871135 548.061618-426.292271 549.227828-518.821046h84.109311c25.173061-1.16621 38.769358-31.345438 22.869085-51.02878" fill="#3B79F5" p-id="6393"></path></svg>